<?xml version="1.0" encoding="UTF-8" standalone="no"?>
<svg width="199px" height="199px" viewBox="0 0 199 199" version="1.1" xmlns="http://www.w3.org/2000/svg" xmlns:xlink="http://www.w3.org/1999/xlink">
    <!-- Generator: Sketch 46.2 (44496) - http://www.bohemiancoding.com/sketch -->
    <title>greyhoundtail</title>
    <desc>Created with Sketch.</desc>
    <defs>
        <radialGradient cx="50%" cy="50%" fx="50%" fy="50%" r="50%" id="radialGradient-1">
            <stop stop-color="#FFFFFF" offset="0%"></stop>
            <stop stop-color="#EDEDED" offset="91.6198338%"></stop>
            <stop stop-color="#000000" offset="100%"></stop>
        </radialGradient>
        <radialGradient cx="50%" cy="50%" fx="50%" fy="50%" r="50.0349898%" id="radialGradient-2">
            <stop stop-color="#FFFFFF" stop-opacity="0.5" offset="0%"></stop>
            <stop stop-color="#000000" stop-opacity="0.5" offset="100%"></stop>
        </radialGradient>
        <circle id="path-3" cx="99.5" cy="99.5" r="92.5"></circle>
        <linearGradient x1="9.93343916%" y1="97.7060418%" x2="95.8821068%" y2="2.52674623%" id="linearGradient-5">
            <stop stop-color="#2F4E72" offset="0%"></stop>
            <stop stop-color="#233C5B" offset="12.6522699%"></stop>
            <stop stop-color="#1A2E49" offset="68.2075659%"></stop>
            <stop stop-color="#15263E" offset="100%"></stop>
        </linearGradient>
    </defs>
    <g id="Page-1" stroke="none" stroke-width="1" fill="none" fill-rule="evenodd">
        <g id="Artboard" transform="translate(-41.000000, -184.000000)">
            <g id="greyhoundtail" transform="translate(41.000000, 184.000000)">
                <circle id="Oval" fill="url(#radialGradient-1)" cx="99.5" cy="99.5" r="99.5"></circle>
                <mask id="mask-4" fill="white">
                    <use xlink:href="#path-3"></use>
                </mask>
                <g id="Mask">
                    <use fill="#748D97" xlink:href="#path-3"></use>
                    <use fill-opacity="0.8" fill="url(#radialGradient-2)" xlink:href="#path-3"></use>
                </g>
                <g id="greyhound" mask="url(#mask-4)">
                    <g transform="translate(26.000000, -7.000000)">
                        <path d="M39.2937462,41.0672981 C36.3690035,47.9203845 35,58.4040286 35,71.2114757 C35,86.7724378 38.4212323,101.012601 42.6683258,108.09189 C44.091445,119.882174 45.14052,132.835817 45.8155508,146.952818 C46.1352484,153.638692 45.3671324,156.281887 45.8155508,161.415496 C45.872061,162.062439 45.9989439,162.751318 46.1634172,163.499045 C45.6441073,164.334583 45.33222,165.274267 45.33222,166.267698 C45.33222,167.997731 46.278088,169.564762 47.6181034,170.702616 C47.6903545,171.295247 47.750485,171.914515 47.7941356,172.56267 C48.1143144,177.316917 49.468152,188.826379 47.7941356,190.611205 C46.6781247,191.80109 46.0185964,193.826292 45.8155508,196.686813 C51.8325592,198.007119 56.681809,197.512592 60.3633004,195.203235 C65.8855374,191.739198 57.4358637,190.897301 57.1342198,188.826379 C56.2058346,182.452596 55.9172686,176.541168 55.9490873,171.131488 C57.2255501,169.976959 58.0395708,168.226846 58.0395708,166.267698 C58.0395708,164.492458 57.3712037,162.888851 56.2960419,161.744465 C56.5507887,157.750556 56.8923411,154.124009 57.1342198,150.887819 C57.9372197,140.144165 61.7740075,122.014366 68.644583,96.4984228 L68.5752895,96.5266583 C70.2410107,92.4943381 71.4897345,87.5321813 72.083486,81.4529454 C74.3507622,88.6685904 77.6137848,96.9101683 80.7447485,101.971351 C81.5995605,103.353149 82.4898579,104.565897 83.4001771,105.630613 C89.1188773,125.258621 92.372246,140.344356 93.1602833,150.887819 C93.4021619,154.124009 93.7437144,157.750556 93.9984612,161.744465 C92.9232994,162.888851 92.2549323,164.492458 92.2549323,166.267698 C92.2549323,168.226846 93.068953,169.976959 94.3454158,171.131488 C94.3772344,176.541168 94.0886685,182.452596 93.1602833,188.826379 C92.8586394,190.897301 87.6380463,193.803945 93.1602833,197.267982 C96.8417746,199.577339 101.979521,199.577339 108.573524,197.267982 L106.61757,192.256072 L102.500367,190.611205 C103.036635,181.804462 103.491563,174.744328 103.86515,169.430804 C104.542126,168.501376 104.962283,167.42074 104.962283,166.267698 C104.962283,165.376609 104.711347,164.528765 104.284865,163.760536 C104.353653,162.890979 104.418349,162.109299 104.478952,161.415496 C104.927371,156.281887 104.159255,132.732747 104.478952,126.046873 C105.172372,111.545298 105.885245,104.365559 106.61757,104.507656 L106.241714,104.507656 C108.707892,95.7408861 110,81.7402802 110,68.1222111 C110,54.3081382 107.381732,44.3631506 103.181063,38.4833664 C101.742337,35.8168212 99.7772068,32.5388046 98.3564164,28.4042421 C97.5423864,26.0353791 96.5763288,21.5405033 95.4582435,14.9196147 C95.0216576,12.3343136 93.3459551,10.1270327 90.9731138,9.01167949 L90.9731127,9.0116818 C89.4814964,8.31054809 88.1719222,7.73563784 87.0443902,7.28695104 C83.9824434,1.58786507 76.7513376,0 71.8782962,0 C67.2831721,0 60.9583278,1.41191283 57.8433077,6.35151566 C56.2561662,7.05597662 54.4086733,7.96666405 52.3008291,9.08357795 L52.3008291,9.08357795 C50.2210999,10.1855941 48.732179,12.1475238 48.2304324,14.447081 L48.2304321,14.447081 C46.7296958,21.3251122 45.5648179,25.9774992 44.7357983,28.4042421 C42.8009871,34.0679064 40.4032867,38.1793034 39.293748,41.067294 Z" id="Combined-Shape" fill="#15263E"></path>
                        <path d="M56.5,107 C65.6126984,107 73,93.9624752 73,77.8798732 C73,61.7972713 69.1985782,42 60.0858798,42 C50.9731815,42 40,61.7972713 40,77.8798732 C40,93.9624752 47.3873016,107 56.5,107 Z" id="Oval-12" fill="#2D3C50"></path>
                        <path d="M90.5,107 C99.6126984,107 107,93.9624752 107,77.8798732 C107,61.7972713 103.198578,42 94.0858798,42 C84.9731815,42 74,61.7972713 74,77.8798732 C74,93.9624752 81.3873016,107 90.5,107 Z" id="Oval-12-Copy" fill="#2D3C50" transform="translate(90.500000, 74.500000) scale(-1, 1) translate(-90.500000, -74.500000) "></path>
                        <path d="M88,96 C95.7319865,96 102,85.1688255 102,71.8078947 C102,58.4469638 98.7745512,42 91.0425647,42 C83.3105782,42 74,58.4469638 74,71.8078947 C74,85.1688255 80.2680135,96 88,96 Z" id="Oval-12-Copy-2" fill-opacity="0.629500679" fill="#374455" transform="translate(88.000000, 69.000000) scale(-1, 1) translate(-88.000000, -69.000000) "></path>
                        <path d="M56,96 C63.7319865,96 70,85.1688255 70,71.8078947 C70,58.4469638 66.7745512,42 59.0425647,42 C51.3105782,42 42,58.4469638 42,71.8078947 C42,85.1688255 48.2680135,96 56,96 Z" id="Oval-12-Copy-3" fill-opacity="0.629500679" fill="#374455"></path>
                        <path d="M78,36.4740279 C74.4647041,63.3021402 71.311098,81.4386866 68.5391815,90.8836673 C63.0574123,109.562153 52.7235066,124.77964 49.5468814,130.222205 C46.3702562,135.664769 29.0401437,154.22685 22.1392546,154.908504 C15.2383656,155.590159 -0.642500484,152.293886 0.0201146687,150.625152 C0.682729822,148.956419 18.2576049,150.837252 22.1392546,149.097766 C26.0209043,147.35828 34.4390215,139.367848 39,132.360546 C40.8152988,129.571594 52.9865924,112.032074 59.6533032,89.4389865 C62.6533887,79.2718743 65.6153482,61.1255455 68.5391815,35 L78,36.4740279 Z" id="Path-7" fill="url(#linearGradient-5)"></path>
                    </g>
                </g>
            </g>
        </g>
    </g>
</svg>