<?xml version="1.0" encoding="UTF-8" standalone="no"?>
<svg width="199px" height="199px" viewBox="0 0 199 199" version="1.1" xmlns="http://www.w3.org/2000/svg" xmlns:xlink="http://www.w3.org/1999/xlink">
    <!-- Generator: Sketch 46.2 (44496) - http://www.bohemiancoding.com/sketch -->
    <title>greyhoundhead </title>
    <desc>Created with Sketch.</desc>
    <defs>
        <radialGradient cx="50%" cy="50%" fx="50%" fy="50%" r="50%" id="radialGradient-1">
            <stop stop-color="#FFFFFF" offset="0%"></stop>
            <stop stop-color="#EDEDED" offset="91.6198338%"></stop>
            <stop stop-color="#000000" offset="100%"></stop>
        </radialGradient>
        <radialGradient cx="50%" cy="50%" fx="50%" fy="50%" r="50.0349898%" id="radialGradient-2">
            <stop stop-color="#FFFFFF" stop-opacity="0.5" offset="0%"></stop>
            <stop stop-color="#000000" stop-opacity="0.5" offset="100%"></stop>
        </radialGradient>
        <circle id="path-3" cx="99.5" cy="99.5" r="92.5"></circle>
        <path d="M79.927332,180 C77.9471016,164.131573 76.9569864,152.057774 76.9569864,143.778605 C76.9569864,139.695954 79.927332,135.576021 79.927332,131.418808 C79.927332,106.214644 81.2474035,85 72.6349016,85 C64.0223996,85 48.7387035,106.214644 48.7387035,131.418808 C48.7387035,136.089582 52.6394326,146.551535 48.7387035,156.115213 C46.6854103,161.14941 40.4391758,169.111005 30,180 L79.927332,180 Z" id="path-5"></path>
        <filter x="-15.0%" y="-7.9%" width="130.0%" height="115.8%" filterUnits="objectBoundingBox" id="filter-6">
            <feMorphology radius="0.5" operator="dilate" in="SourceAlpha" result="shadowSpreadOuter1"></feMorphology>
            <feOffset dx="0" dy="0" in="shadowSpreadOuter1" result="shadowOffsetOuter1"></feOffset>
            <feGaussianBlur stdDeviation="2" in="shadowOffsetOuter1" result="shadowBlurOuter1"></feGaussianBlur>
            <feColorMatrix values="0 0 0 0 0.898039216   0 0 0 0 0.929411765   0 0 0 0 0.929411765  0 0 0 1 0" type="matrix" in="shadowBlurOuter1"></feColorMatrix>
        </filter>
        <path d="M8.00369384,17.8400054 C11.7813215,17.8400054 15.657296,16.3590932 15.657296,13.2908446 C15.657296,10.222596 11.7813215,6.72889424 8.00369384,6.72889424 C4.22606615,6.72889424 1.16369384,9.21620119 1.16369384,12.2844498 C1.16369384,15.3526984 4.22606615,17.8400054 8.00369384,17.8400054 Z" id="path-7"></path>
        <path d="M7.78391278,11.9812358 C11.457807,11.9812358 15.2273474,10.5971525 15.2273474,7.72952015 C15.2273474,4.8618878 11.457807,1.59662039 7.78391278,1.59662039 C4.11001857,1.59662039 1.13173886,3.92129573 1.13173886,6.78892808 C1.13173886,9.65656044 4.11001857,11.9812358 7.78391278,11.9812358 Z" id="path-8"></path>
    </defs>
    <g id="Page-1" stroke="none" stroke-width="1" fill="none" fill-rule="evenodd">
        <g id="Artboard" transform="translate(-261.000000, -9.000000)">
            <g id="greyhoundhead-" transform="translate(261.000000, 9.000000)">
                <circle id="Oval" fill="url(#radialGradient-1)" cx="99.5" cy="99.5" r="99.5"></circle>
                <mask id="mask-4" fill="white">
                    <use xlink:href="#path-3"></use>
                </mask>
                <g id="Mask">
                    <use fill="#748D97" xlink:href="#path-3"></use>
                    <use fill-opacity="0.8" fill="url(#radialGradient-2)" xlink:href="#path-3"></use>
                </g>
                <g id="greyhead" mask="url(#mask-4)">
                    <g transform="translate(35.000000, 20.000000)">
                        <path d="M93.2861206,126.636791 C93.4936458,126.424729 93.7007716,126.210352 93.9074982,125.99366 C95.1780935,124.661817 95.9505412,122.932557 96.0945821,121.09749 L96.0945815,121.09749 C99.329203,79.8887025 100.990892,58.2354972 101.079649,56.1378744 C101.155965,54.3342857 99.9409993,49.9777181 97.4347532,43.0681715 C96.4933405,40.4727622 94.2802082,38.5461889 91.5798416,37.9713608 L91.5798411,37.9713629 L44.7374262,28 L34.8791298,43.6656509 C33.9863611,45.0843344 33.5617642,46.7476061 33.6652896,48.4206217 L33.6652931,48.4206215 C34.1119039,55.6380442 34.4309784,60.0125188 34.6225166,61.5440455 C36.6133811,77.4628655 39.5310542,87.8880166 39.5310542,92.9331131 C39.5310542,98.9921223 38.7514069,108.416533 37.1921121,121.206345 C36.9726255,123.006642 37.371369,124.828092 38.3229586,126.372022 L38.3229593,126.372022 C38.8174034,127.174245 39.3249035,127.943918 39.8454596,128.681042 C38.408501,130.222546 37.0569956,131.809513 35.7909433,133.441943 C26.6239485,139.965937 16.0269674,154.818623 4,178 L116,178 C106.588169,151.742601 99.0168763,134.621531 93.2861206,126.636791 Z" id="Combined-Shape" fill="#15263E" fill-rule="evenodd"></path>
                        <g id="Oval-2" fill="none">
                            <use fill="black" fill-opacity="1" filter="url(#filter-6)" xlink:href="#path-5"></use>
                            <use fill="#E5EDED" fill-rule="evenodd" xlink:href="#path-5"></use>
                        </g>
                        <path d="M41.1230047,6.91385612 C37.8635902,6.91385612 34.1544517,0.434666449 28.0998073,0.0369742521 C22.045163,-0.360717945 16.299975,2.48408755 11.8576851,6.91385612 C7.41539531,11.3436247 -1.87118844,35.5832544 0.333326806,37.1377374 C2.53784206,38.6922204 9.41760595,29.2815409 15.5653776,28.8195842 C21.1298083,31.515618 24.1057955,32.1593278 28.0998073,35.0513048 C30.7624819,36.9792895 36.8185724,44.0777565 46.2680786,56.346706 L58.1651531,79.4298585 C61.9740656,86.5937294 65.1885335,90.8939741 67.8085569,92.3305927 C71.7385921,94.4855205 77.8979208,94.626305 82.9121674,92.3305927 C86.2549985,90.8001178 87.8038812,87.7859787 87.5588156,83.2881752 C89.0728382,70.3394721 90.0783304,62.2254869 90.5752923,58.9462196 C91.3207352,54.0273186 96.8557287,39.9492617 100.228452,35.9214379 C106.528203,35.0513048 108.473874,32.0613562 113.544476,31.515618 C118.615078,30.9698798 134.513761,39.22417 135.840519,37.1377374 C137.167277,35.0513048 129.880672,30.3340419 126.397761,24.9870796 C122.914851,19.6401174 123.911988,17.9287688 120.714031,13.9155611 C117.516074,9.90235332 111.657623,5.33912255 107.009017,3.52040956 C102.360411,1.70169657 97.2488495,2.40571026 94.8845448,3.52040956 C92.5202402,4.63510886 93.4688542,6.91385612 90.5752923,6.91385612 C87.6817305,6.91385612 81.5612905,3.52040956 74.9636514,2.48408755 C68.3660123,1.44776555 64.2428073,1.44409737 56.2979362,2.48408755 C48.3530651,3.52407773 44.3824192,6.91385612 41.1230047,6.91385612 Z" id="Path-2" fill="#203656" fill-rule="evenodd"></path>
                        <path d="M37,12.5779203 C37,8.6882785 33.2369763,7.81782869 30.8516417,6.15931756 C28.466307,4.50080643 28.5941386,4.49997043 23.2430027,6.95400863 C17.8918668,9.40804683 15.6076187,10.7445268 12.9123012,13.4358668 C10.2169836,16.1272068 6.05168202,27.4938283 7.19378062,28.0347708 C8.33587923,28.5757133 17.3515253,25.1860978 19.0643084,25.9386186 C20.7770914,26.6911394 24.8777953,33.3886902 28.1522022,30.0945694 C31.4266092,26.8004485 35.365303,16.8425377 37,12.5779203 Z" id="Path-4" fill="#35404F" fill-rule="evenodd"></path>
                        <path d="M35,132.372458 C38.1565826,136.107594 47.7998849,137.983406 63.929907,137.999892 C80.059929,138.016379 90.4166267,136.140567 95,132.372458 L95,124 C86.5198006,128.666667 76.1631029,130.542478 63.929907,129.627435 C51.6967111,128.712391 42.0534088,126.836579 35,124 L35,132.372458 Z" id="Path-3" fill="#404D60" fill-rule="evenodd"></path>
                        <path d="M97.0250106,8.94526806 C97.4735077,6.21539631 100.1443,6 102.655519,6 C105.166737,6 108.88072,6.07450683 111.832843,8.94526806 C114.784966,11.8160293 116.882749,12.3044951 118.026979,14.3709097 C119.171209,16.4373243 119.811559,18.0380985 121.387121,20.3070925 C122.962683,22.5760866 126.035245,25.6049233 124.650682,26.694827 C123.266119,27.7847306 115.722377,25.6049233 111.832843,25.6049233 C107.94331,25.6049233 105.821779,27.6379588 104.053776,25.6049233 C102.285773,23.5718878 96.5765134,11.6751398 97.0250106,8.94526806 Z" id="Path-5" fill="#35404F" fill-rule="evenodd"></path>
                        <path d="M44.3859408,30.4829292 C43.3145393,25.8366872 43.0331941,15.9734133 63.8683498,15.1757873 C86.8269219,14.2968712 92.3738192,16.7370607 91.9809029,21.9742285 C91.2394043,31.8576382 82.805871,28.3625119 82.3552542,33.4818786 C82.1652693,35.6402586 82.3552542,48.9665597 82.3552542,54.8509687 C82.3552542,58.7739079 83.0277485,66.823585 84.3727371,79 L69.983039,79 C68.3612123,65.9147516 67.3483396,58.618601 66.9444209,57.111548 C66.3385428,54.8509687 59.8337192,40.4609744 58.5259543,35.2851652 C56.0855151,25.6265118 46.6650086,40.3663389 44.3859408,30.4829292 Z" id="Rectangle-2" fill-opacity="0.342023324" fill="#7F8C99" fill-rule="evenodd"></path>
                        <path d="M76.5,92 C82.2989899,92 87,86.6489658 87,81.9545455 C87,77.2601251 82.2989899,75 76.5,75 C70.7010101,75 66,77.2601251 66,81.9545455 C66,86.6489658 70.7010101,92 76.5,92 Z" id="Oval-3" fill="#091524" fill-rule="evenodd"></path>
                        <g id="Group" stroke-width="1" fill="none" fill-rule="evenodd" transform="translate(43.000000, 19.000000)">
                            <path d="M15.3553646,15.5222801 C16.5309896,15.0757137 18.8866927,10.1477985 18.8866927,6.875 C18.8866927,3.60220148 15.0151064,0 11.8670833,0 C8.71906026,0 6.08,1.97122154 6.08,5.24402006 C6.08,8.51681858 14.1797396,15.9688465 15.3553646,15.5222801 Z" id="Oval-7" fill="#0D1E34"></path>
                            <g id="Oval-4" transform="translate(8.410495, 12.284450) rotate(14.000000) translate(-8.410495, -12.284450) ">
                                <use fill="#102744" fill-rule="evenodd" xlink:href="#path-7"></use>
                                <path stroke="#061C2F" stroke-width="1" d="M8.00369384,17.3400054 C12.0637356,17.3400054 15.157296,15.7220453 15.157296,13.2908446 C15.157296,10.4584892 11.4543176,7.22889424 8.00369384,7.22889424 C4.48196229,7.22889424 1.66369384,9.51793619 1.66369384,12.2844498 C1.66369384,15.0509634 4.48196229,17.3400054 8.00369384,17.3400054 Z"></path>
                            </g>
                            <ellipse id="Oval-5" fill="#01020A" cx="10.26" cy="12.2222222" rx="4.18" ry="3.33333333"></ellipse>
                            <ellipse id="Oval-6" fill="#234672" cx="11.4" cy="11.1111111" rx="1.52" ry="1.48148148"></ellipse>
                        </g>
                        <path d="M83.3676656,33 C84.7710904,33 91,25.5440933 91,22.9657315 C91,20.3873696 87.334604,19 84.7710904,19 C82.2075768,19 79,21.2982581 79,23.8766199 C79,26.4549817 81.9642407,33 83.3676656,33 Z" id="Oval-8" fill="#0D1E34" fill-rule="evenodd"></path>
                        <g id="Group-Copy" stroke-width="1" fill="none" fill-rule="evenodd" transform="translate(88.500000, 30.000000) scale(-1, 1) translate(-88.500000, -30.000000) translate(80.000000, 23.000000)">
                            <g id="Oval-4" transform="translate(8.179543, 6.788928) rotate(14.000000) translate(-8.179543, -6.788928) ">
                                <use fill="#102744" fill-rule="evenodd" xlink:href="#path-8"></use>
                                <path stroke="#061C2F" stroke-width="1" d="M7.78391278,11.4812358 C11.7251119,11.4812358 14.7273474,9.97227003 14.7273474,7.72952015 C14.7273474,5.10658667 11.1361496,2.09662039 7.78391278,2.09662039 C4.36282827,2.09662039 1.63173886,4.22835307 1.63173886,6.78892808 C1.63173886,9.34950309 4.36282827,11.4812358 7.78391278,11.4812358 Z"></path>
                            </g>
                            <g id="Group-2" transform="translate(2.217391, 2.923077)">
                                <ellipse id="Oval-5" fill="#01020A" cx="4.06521739" cy="3.11538462" rx="4.06521739" ry="3.11538462"></ellipse>
                                <ellipse id="Oval-6" fill="#234672" cx="4.43478261" cy="2.07692308" rx="1.47826087" ry="1.38461538"></ellipse>
                            </g>
                        </g>
                    </g>
                </g>
            </g>
        </g>
    </g>
</svg>